<svg xmlns="http://www.w3.org/2000/svg" width="33.678" height="27.099" viewBox="0 0 33.678 27.099">
  <g id="Group_7811" data-name="Group 7811" transform="translate(0 -50.008)">
    <g id="Group_7804" data-name="Group 7804" transform="translate(6.224 51.778)">
      <g id="Group_7803" data-name="Group 7803" transform="translate(0 0)">
        <path id="Path_12380" data-name="Path 12380" d="M105.773,76.909a11.153,11.153,0,1,0,11.153,11.153A11.153,11.153,0,0,0,105.773,76.909Zm0,19.616a8.463,8.463,0,1,1,8.463-8.463A8.472,8.472,0,0,1,105.773,96.525Z" transform="translate(-94.62 -76.909)" fill="#e61616"/>
      </g>
    </g>
    <g id="Group_7806" data-name="Group 7806" transform="translate(11.183 56.737)">
      <g id="Group_7805" data-name="Group 7805" transform="translate(0 0)">
        <path id="Path_12381" data-name="Path 12381" d="M176.2,152.3a6.194,6.194,0,1,0,6.194,6.194A6.2,6.2,0,0,0,176.2,152.3Z" transform="translate(-170.009 -152.299)" fill="#e61616"/>
      </g>
    </g>
    <g id="Group_7808" data-name="Group 7808" transform="translate(29.821 50.008)">
      <g id="Group_7807" data-name="Group 7807" transform="translate(0 0)">
        <path id="Path_12382" data-name="Path 12382" d="M456.526,63.866V50.313a.3.3,0,0,0-.547-.184,12.827,12.827,0,0,0-2.606,7.75v4.958a1.03,1.03,0,0,0,1.03,1.03h.429c-.423,4.37-.7,10.483-.7,11.2a1.609,1.609,0,1,0,3.1,0C457.228,74.35,456.949,68.236,456.526,63.866Z" transform="translate(-453.372 -50.008)" fill="#e61616"/>
      </g>
    </g>
    <g id="Group_7810" data-name="Group 7810" transform="translate(0 51.223)">
      <g id="Group_7809" data-name="Group 7809" transform="translate(0 0)">
        <path id="Path_12383" data-name="Path 12383" d="M4.5,78.428A2.964,2.964,0,0,0,5.931,75.89l-.425-6.947A.5.5,0,0,0,4.5,69L4.78,74.57a.567.567,0,1,1-1.134,0L3.508,69a.543.543,0,0,0-1.085,0l-.138,5.57a.567.567,0,1,1-1.134,0L1.427,69a.5.5,0,0,0-1-.056L0,75.89a2.964,2.964,0,0,0,1.431,2.538,1.677,1.677,0,0,1,.8,1.619c-.484,4.365-.813,11.491-.813,12.267a1.847,1.847,0,0,0,1.55,2.042,1.848,1.848,0,0,0,1.55-2.042c0-.776-.329-7.9-.813-12.267A1.678,1.678,0,0,1,4.5,78.428Z" transform="translate(0 -68.471)" fill="#e61616"/>
      </g>
    </g>
  </g>
</svg>
